<?xml version="1.0" standalone="no"?><!DOCTYPE svg PUBLIC "-//W3C//DTD SVG 1.1//EN" "http://www.w3.org/Graphics/SVG/1.1/DTD/svg11.dtd"><svg t="1566104236206" class="icon" viewBox="0 0 1024 1024" version="1.1" xmlns="http://www.w3.org/2000/svg" p-id="28939" xmlns:xlink="http://www.w3.org/1999/xlink" width="128" height="128"><defs><style type="text/css"></style></defs><path d="M512 1023.998009a508.670022 508.670022 0 0 1-362.039481-149.958528A508.613133 508.613133 0 0 1 0.001991 512 508.613133 508.613133 0 0 1 149.960519 149.960519 508.698466 508.698466 0 0 1 512 0.001991a508.641578 508.641578 0 0 1 362.039481 149.958528A508.613133 508.613133 0 0 1 1023.998009 512a508.613133 508.613133 0 0 1-149.958528 362.039481A508.613133 508.613133 0 0 1 512 1023.998009z m-78.108141-548.008536a80.92413 80.92413 0 0 1 22.527913 3.41332 30.662992 30.662992 0 0 0 6.855084 1.393773 40.021178 40.021178 0 0 1 9.415075 25.20168 58.424662 58.424662 0 0 1-4.664871 25.173235 66.445964 66.445964 0 0 1-2.844433 16.66838 40.220288 40.220288 0 0 0-1.763549 8.5333l-29.326108 99.555168a66.389075 66.389075 0 0 0-4.750204 29.980328v25.230124a69.318842 69.318842 0 0 0 24.661237 50.346471 79.644135 79.644135 0 0 0 63.40242 20.394587 158.861604 158.861604 0 0 0 49.294031-4.750203 475.24793 475.24793 0 0 0 54.044234-20.423032l9.329742-29.980328a16.725268 16.725268 0 0 0-5.916422 1.678216 34.133201 34.133201 0 0 1-14.023056 3.128876h-24.632793c-15.35994 0-24.632793 0-29.326109-4.807092a40.789175 40.789175 0 0 1-9.415074-25.173235 58.538439 58.538439 0 0 1 4.693315-25.258569 67.043295 67.043295 0 0 1 2.844433-16.583046 41.557172 41.557172 0 0 0 1.735105-8.533301l29.382997-99.555168a66.957962 66.957962 0 0 0 4.721759-29.980328v-25.258568a61.980203 61.980203 0 0 0-24.661237-50.346471 79.644135 79.644135 0 0 0-63.40242-20.394588 143.558553 143.558553 0 0 0-36.152749 6.286198h-0.369776a847.925591 847.925591 0 0 1-12.856839 3.21421 199.281003 199.281003 0 0 0-54.044234 20.394587l-9.329742 29.980328a17.0666 17.0666 0 0 0 6.001755-1.678215 34.133201 34.133201 0 0 1 13.937723-3.100433 38.769627 38.769627 0 0 0 13.112838-2.531546 34.730532 34.730532 0 0 1 11.519955-2.218658z m131.5266-233.954645a61.752649 61.752649 0 0 0-49.294031 20.394587 46.762485 46.762485 0 0 0-19.911033 44.401605 61.809537 61.809537 0 0 0 19.911033 45.510934l3.697764 2.332436 1.791993 1.166217a78.733916 78.733916 0 0 0 43.804274 16.839046 61.923315 61.923315 0 0 0 49.322475-20.337699 48.355368 48.355368 0 0 0 19.911033-45.510934 57.173111 57.173111 0 0 0-19.911033-44.401605 59.733101 59.733101 0 0 0-49.322475-20.394587z" fill="#28D0C9" p-id="28940"></path></svg>