<?xml version="1.0" standalone="no"?><!DOCTYPE svg PUBLIC "-//W3C//DTD SVG 1.1//EN" "http://www.w3.org/Graphics/SVG/1.1/DTD/svg11.dtd"><svg t="1566103165014" class="icon" viewBox="0 0 1024 1024" version="1.1" xmlns="http://www.w3.org/2000/svg" p-id="17259" xmlns:xlink="http://www.w3.org/1999/xlink" width="400" height="400"><defs><style type="text/css"></style></defs><path d="M314.88 573.44c-1.536 7.168-2.56 15.36-4.096 23.04l-22.528 137.728c-3.072 20.48-7.68 33.792 5.12 52.736 2.048 2.56 3.072 4.096 5.12 6.144 2.048 2.048 3.584 3.072 6.144 5.12 6.656 5.12 16.384 8.704 25.088 8.704 13.312 0 19.968-2.048 30.208-8.192 1.536-1.024 3.584-2.048 5.12-3.072 8.704-5.12 17.408-9.216 26.112-14.336 10.24-6.144 20.992-11.264 31.744-17.408 2.048-1.024 3.072-2.048 5.12-3.072 2.048-1.024 3.072-2.048 5.12-3.072l68.096-36.864c7.168-4.096 5.12-3.584 15.872 2.56l57.856 31.232c2.048 1.024 3.072 2.048 5.12 3.072l12.8 7.168c1.024 0.512 1.536 1.024 3.072 1.536 1.024 0.512 1.024 1.024 2.56 1.536 1.024 0.512 1.536 1.024 2.56 1.536l26.112 14.336c2.048 1.024 3.584 2.048 5.12 3.072l20.992 11.264c17.408 9.216 30.72 11.264 48.64 3.584 2.048-1.024 5.12-3.072 7.168-4.096 6.656-4.608 12.288-10.752 15.36-18.432 1.024-2.56 2.048-5.632 3.072-8.192 2.56-8.192 1.024-16.896 0-25.088l-5.632-34.816c-0.512-3.072-1.024-7.68-2.048-11.264-0.512-3.584-1.024-7.68-2.048-11.776-3.584-18.944-6.144-38.4-9.216-57.344-2.56-15.36-5.632-31.232-7.68-46.08-0.512-4.096-1.536-7.68-2.048-11.776 3.584-2.56 14.848-14.336 18.432-18.432l6.656-6.656c9.216-10.752 19.968-20.48 30.208-30.208l4.608-4.608 3.072-3.584c9.216-10.24 20.48-19.968 29.696-30.208l3.072-3.072 0.512-0.512 4.608-5.12c7.68-7.68 25.088-23.552 29.696-30.72 0.512-1.024 1.024-2.048 2.048-3.072 16.384-25.088 4.096-60.416-24.576-70.144-6.656-2.048-36.864-6.656-47.104-7.68l-79.36-11.776c-5.12-0.512-10.752-1.536-15.872-2.56l-31.744-4.608c-8.704-1.536-6.656 0-10.752-7.68l-23.552-49.664c-2.048-4.096-3.584-8.192-5.632-12.288l-11.776-25.088c-5.632-12.8-12.288-24.576-17.408-37.376l-5.632-12.288c-3.584-7.68-7.168-17.408-12.8-24.064-3.072-4.096-5.12-5.632-9.216-9.216-21.504-16.384-51.712-11.264-67.584 9.728-4.096 5.12-18.944 36.864-23.04 46.08-5.12 11.264-13.824 27.648-17.92 37.888-4.096 9.728-9.216 18.944-13.824 28.672l-22.016 46.592c-4.608 8.704 0 6.656-18.944 9.216L312.32 349.696c-4.096 0.512-7.68 1.024-11.776 1.536L251.904 358.4c-2.56 0.512-4.096 0.512-6.144 1.024-10.24 1.536-32.768 4.096-40.96 7.168-11.264 4.608-19.968 12.8-25.6 23.552-1.024 2.048-1.024 3.072-2.048 5.12-5.632 13.824-2.56 31.744 6.144 43.52 5.632 7.68 19.968 20.992 27.648 28.16l10.24 10.752 3.584 3.584 25.088 25.088c11.264 12.288 25.088 24.064 35.328 36.352 0.512 1.024 1.024 1.024 2.048 2.048l13.824 13.824c3.072 4.608 10.24 12.8 13.824 14.848zM506.88 5.12c280.064 0 506.88 226.816 506.88 506.88s-226.816 506.88-506.88 506.88-506.88-226.816-506.88-506.88S226.816 5.12 506.88 5.12z" fill="#2EB1F1" p-id="17260"></path></svg>