<?xml version="1.0" standalone="no"?><!DOCTYPE svg PUBLIC "-//W3C//DTD SVG 1.1//EN" "http://www.w3.org/Graphics/SVG/1.1/DTD/svg11.dtd"><svg t="1567137481276" class="icon" viewBox="0 0 1030 1024" version="1.1" xmlns="http://www.w3.org/2000/svg" p-id="2927" xmlns:xlink="http://www.w3.org/1999/xlink" width="128.75" height="128"><defs><style type="text/css"></style></defs><path d="M885.76 1008.64H153.6c-14.336 0-25.6-11.264-25.6-25.6V40.96c0-14.336 11.264-25.6 25.6-25.6h732.16c14.336 0 25.6 11.264 25.6 25.6v942.08c0 14.336-11.264 25.6-25.6 25.6z m-706.56-51.2h680.96V66.56H179.2v890.88z" p-id="2928" fill="#1296db"></path><path d="M640 424.96c-4.096 0-8.704-1.024-12.8-3.072l-104.96-59.904-104.96 59.904c-7.68 4.608-17.408 4.608-25.6 0-8.192-5.12-12.8-13.312-12.8-22.528V40.96c0-14.336 11.264-25.6 25.6-25.6H640c14.336 0 25.6 11.264 25.6 25.6v358.4c0 9.216-4.608 17.408-12.8 22.016-4.096 2.56-8.192 3.584-12.8 3.584zM522.24 307.2c4.096 0 8.704 1.024 12.8 3.072l79.36 45.056V66.56H430.08v288.768l79.36-45.056c4.096-2.048 8.704-3.072 12.8-3.072z m199.68 322.56h-409.6c-14.336 0-25.6-11.264-25.6-25.6s11.264-25.6 25.6-25.6h409.6c14.336 0 25.6 11.264 25.6 25.6s-11.264 25.6-25.6 25.6z m-204.8 133.12h-204.8c-14.336 0-25.6-11.264-25.6-25.6s11.264-25.6 25.6-25.6h204.8c14.336 0 25.6 11.264 25.6 25.6s-11.264 25.6-25.6 25.6zM704 901.12c-55.296 0-99.84-44.544-99.84-99.84s44.544-99.84 99.84-99.84 99.84 44.544 99.84 99.84-44.544 99.84-99.84 99.84z m0-148.48c-26.624 0-48.64 22.016-48.64 48.64s22.016 48.64 48.64 48.64 48.64-22.016 48.64-48.64-22.016-48.64-48.64-48.64z" p-id="2929" fill="#1296db"></path></svg>