<?xml version="1.0" standalone="no"?><!DOCTYPE svg PUBLIC "-//W3C//DTD SVG 1.1//EN" "http://www.w3.org/Graphics/SVG/1.1/DTD/svg11.dtd"><svg t="1566103465416" class="icon" viewBox="0 0 1024 1024" version="1.1" xmlns="http://www.w3.org/2000/svg" p-id="17992" width="128" height="128" xmlns:xlink="http://www.w3.org/1999/xlink"><defs><style type="text/css"></style></defs><path d="M545.792 93.320533c17.271467 0 31.505067 14.2336 31.505067 31.5392v37.7856c0 17.339733 13.585067 35.771733 30.1056 40.8576l52.701866 21.7088c5.666133 3.072 12.322133 4.5056 19.114667 4.5056 11.4688 0 23.278933-4.1984 30.9248-11.8784l26.8288-26.8288a31.5392 31.5392 0 0 1 44.612267 0l44.578133 44.544c12.288 12.288 12.288 32.324267 0 44.612267l-26.8288 26.794667c-12.1856 12.288-15.5648 34.781867-7.338667 50.039466l21.674667 52.770134c5.154133 16.554667 23.552 30.1056 40.8576 30.1056h37.819733c17.3056 0 31.470933 14.165333 31.470934 31.505066v63.0784a31.573333 31.573333 0 0 1-31.470934 31.505067h-37.819733c-17.237333 0-35.703467 13.550933-40.8576 30.037333l-21.7088 52.770134c-8.192 15.291733-4.8128 37.888 7.3728 50.107733l26.8288 26.760533c12.288 12.288 12.288 32.324267 0 44.612267l-44.578133 44.578133a31.5392 31.5392 0 0 1-44.612267 0l-26.692267-26.8288c-7.68-7.68-19.456-11.844267-30.9248-11.844266-6.792533 0-13.482667 1.467733-19.182933 4.539733l-52.770133 21.7088c-16.520533 5.12-30.1056 23.517867-30.1056 40.8576v37.717333a31.6416 31.6416 0 0 1-31.505067 31.505067h-62.976a31.607467 31.607467 0 0 1-31.573333-31.505067v-37.717333c0-17.339733-13.5168-35.703467-30.037334-40.8576l-52.906666-21.7088a40.277333 40.277333 0 0 0-19.114667-4.539733c-11.434667 0-23.1424 4.1984-30.788267 11.844266l-26.862933 26.8288a31.402667 31.402667 0 0 1-22.289067 9.216 31.3344 31.3344 0 0 1-22.254933-9.216L202.410667 770.2528a31.744 31.744 0 0 1 0-44.612267l26.8288-26.760533c12.288-12.219733 15.5648-34.816 7.406933-50.107733l-21.777067-52.736c-5.12-16.520533-23.415467-30.071467-40.789333-30.1056H136.260267a31.6416 31.6416 0 0 1-31.5392-31.5392V471.381333c0-17.339733 14.199467-31.505067 31.5392-31.505066h37.7856c17.373867 0 35.7376-13.5168 40.8576-30.037334l21.7088-52.8384c8.226133-15.2576 4.881067-37.7856-7.406934-50.039466l-26.760533-26.8288a31.607467 31.607467 0 0 1 0-44.578134l44.544-44.544a31.402667 31.402667 0 0 1 22.254933-9.181866 31.402667 31.402667 0 0 1 22.289067 9.216l26.897067 26.794666c7.68 7.714133 19.421867 11.8784 30.890666 11.8784 6.7584 0 13.4144-1.467733 19.114667-4.5056l52.736-21.7088c16.554667-5.12 30.071467-23.483733 30.071467-40.8576V124.859733c0-17.3056 14.199467-31.5392 31.573333-31.5392h62.976z m-31.402667 567.022934a157.4912 157.4912 0 1 0 0-315.016534 157.525333 157.525333 0 1 0 0 315.050667zM545.792 11.3664h-62.976a113.629867 113.629867 0 0 0-113.527467 113.493333v11.400534l-11.741866 4.846933-8.157867-8.123733a112.64 112.64 0 0 0-80.145067-33.109334 112.64 112.64 0 0 0-80.247466 33.245867L144.4864 177.629867a112.64 112.64 0 0 0-33.211733 80.213333c0 30.344533 11.810133 58.845867 33.211733 80.247467l7.9872 7.9872-4.881067 11.8784h-11.264A113.629867 113.629867 0 0 0 22.766933 471.381333v63.010134a113.629867 113.629867 0 0 0 113.493334 113.493333h11.298133l4.881067 11.810133-7.9872 7.9872a113.937067 113.937067 0 0 0-0.238934 160.290134l44.8512 44.817066a112.64 112.64 0 0 0 80.213334 33.1776c30.3104 0 58.7776-11.776 80.213333-33.143466l7.953067-7.9872 11.844266 4.846933v11.298133a113.629867 113.629867 0 0 0 113.527467 113.425067h62.976a113.5616 113.5616 0 0 0 113.4592-113.425067v-11.264l11.844267-4.9152 7.7824 7.850667c21.674667 21.572267 50.176 33.314133 80.418133 33.314133 30.3104 0 58.811733-11.776 80.213333-33.143466l44.612267-44.612267a112.674133 112.674133 0 0 0 33.245867-80.247467c0-30.378667-11.810133-58.845867-33.28-80.2816l-7.9872-7.9872 4.881066-11.810133h11.3664a113.5616 113.5616 0 0 0 113.4592-113.425067V471.381333a113.5616 113.5616 0 0 0-113.4592-113.4592h-11.3664l-4.881066-11.810133 7.9872-7.953067c21.504-21.504 33.314133-50.039467 33.28-80.384a112.64 112.64 0 0 0-33.314134-80.213333l-44.544-44.509867a112.776533 112.776533 0 0 0-80.213333-33.143466c-30.276267 0-58.743467 11.741867-80.1792 33.0752l-8.123733 8.123733-11.741867-4.846933v-11.434667A113.595733 113.595733 0 0 0 545.792 11.3664z m-31.402667 567.057067a75.6736 75.6736 0 0 1-75.605333-75.5712c0-41.6768 33.928533-75.5712 75.5712-75.5712s75.5712 33.8944 75.5712 75.5712c0 41.642667-33.8944 75.5712-75.5712 75.5712z" p-id="17993"></path></svg>