<?xml version="1.0" standalone="no"?><!DOCTYPE svg PUBLIC "-//W3C//DTD SVG 1.1//EN" "http://www.w3.org/Graphics/SVG/1.1/DTD/svg11.dtd"><svg t="1566104102150" class="icon" viewBox="0 0 1024 1024" version="1.1" xmlns="http://www.w3.org/2000/svg" p-id="22644" xmlns:xlink="http://www.w3.org/1999/xlink" width="128" height="128"><defs><style type="text/css"></style></defs><path d="M345.916298 652.706756h399.595486a44.976432 44.976432 0 0 0 0-89.952864H345.843165a44.976432 44.976432 0 0 0 0 89.952864m162.719612-483.77089H582.865305a44.976432 44.976432 0 0 0 0-90.025996H508.562777a44.976432 44.976432 0 0 0 0 89.952864m464.683331-89.952864h-93.975147a44.976432 44.976432 0 0 0 0 89.952864h48.998715V934.047136H163.085274V168.935866H212.083988a44.976432 44.976432 0 0 0 0-90.025996H118.108842c-24.865019 0-44.976432 24.206828-44.976432 49.071847v851.041851c0 24.865019 20.184545 44.976432 44.976432 44.976432h855.137266c24.865019 0 44.976432-20.184545 44.976432-44.976432V127.981717c0-24.865019-20.111413-49.071847-44.976432-49.071847M345.843165 450.203114h399.668619a44.976432 44.976432 0 0 0 0-89.952864H345.843165a44.976432 44.976432 0 0 0 0 89.952864m379.849736-193.654621a56.311955 56.311955 0 0 0 56.311955-56.311955V56.45822a56.311955 56.311955 0 0 0-112.62391 0v143.924582c0 31.081274 25.230681 56.311955 56.311955 56.311956m-416.269676-56.311956V56.385088a56.311955 56.311955 0 0 1 112.477646 0v143.924582a56.311955 56.311955 0 0 1-112.477646 0" fill="#17CAAA" p-id="22645"></path></svg>