<?xml version="1.0" standalone="no"?><!DOCTYPE svg PUBLIC "-//W3C//DTD SVG 1.1//EN" "http://www.w3.org/Graphics/SVG/1.1/DTD/svg11.dtd"><svg t="1566214600429" class="icon" viewBox="0 0 1024 1024" version="1.1" xmlns="http://www.w3.org/2000/svg" p-id="4163" xmlns:xlink="http://www.w3.org/1999/xlink" width="128" height="128"><defs><style type="text/css"></style></defs><path d="M896 784H128a128 128 0 0 1-128-128v-480a128 128 0 0 1 128-128h768a128 128 0 0 1 128 128v480a128 128 0 0 1-128 128zM128 112a64 64 0 0 0-64 64v480a64 64 0 0 0 64 64h768a64 64 0 0 0 64-64v-480a64 64 0 0 0-64-64zM704 976H320a32 32 0 0 1 0-64h384a32 32 0 0 1 0 64z" p-id="4164" fill="#1296db"></path><path d="M512 976a32 32 0 0 1-32-32v-192a32 32 0 0 1 64 0v192a32 32 0 0 1-32 32zM716.8 238.08a34.56 34.56 0 0 0-12.8-21.12 38.4 38.4 0 0 0-25.6-6.4l-17.92 3.84a181.76 181.76 0 0 0-20.48 8.96 218.88 218.88 0 0 0-23.04 12.8L590.72 256l-21.76 16a104.96 104.96 0 0 0-28.16-5.76A164.48 164.48 0 0 0 512 262.4a169.6 169.6 0 0 0-24.32 3.2l-23.04 6.4a132.48 132.48 0 0 0-21.76 9.6l-20.48 12.8a133.76 133.76 0 0 0-17.92 15.36 128 128 0 0 0-15.36 17.28 135.04 135.04 0 0 0-13.44 19.84 161.92 161.92 0 0 0-10.24 21.12 158.08 158.08 0 0 0-7.04 23.04c0 7.68-3.2 16-4.48 24.32a206.72 206.72 0 0 0 0 28.16 145.28 145.28 0 0 0 5.76 33.28 12.16 12.16 0 0 1 0 4.48l-16.64 23.68c-5.76 8.96-11.52 17.92-16.64 27.52a209.92 209.92 0 0 0-12.16 23.68 90.24 90.24 0 0 0-7.04 28.8 37.12 37.12 0 0 0 9.6 26.24 33.28 33.28 0 0 0 24.96 10.24 56.32 56.32 0 0 0 17.28 0 96.64 96.64 0 0 0 19.84-7.68l22.4-11.52c8.96-5.12 17.28-10.88 25.6-16.64L435.84 576a144.64 144.64 0 0 0 22.4 10.88 172.16 172.16 0 0 0 29.44 8.96 174.08 174.08 0 0 0 57.6 0 165.76 165.76 0 0 0 25.6-5.76l23.04-9.6a175.36 175.36 0 0 0 21.76-12.16 158.72 158.72 0 0 0 19.2-16 153.6 153.6 0 0 0 17.28-17.92 231.68 231.68 0 0 0 14.08-20.48 192 192 0 0 0 10.88-23.04 11.52 11.52 0 0 0 0-10.24 11.52 11.52 0 0 0-9.6-5.12h-21.12a11.52 11.52 0 0 0-10.24 6.4 96.64 96.64 0 0 1-12.8 22.4 137.6 137.6 0 0 1-18.56 20.48 147.84 147.84 0 0 1-23.04 16 133.76 133.76 0 0 1-26.24 10.88 148.48 148.48 0 0 1-29.44 4.48 154.88 154.88 0 0 1-30.08 0 138.24 138.24 0 0 1-27.52-8.96 121.6 121.6 0 0 1-23.68-14.08A145.28 145.28 0 0 1 423.04 512a186.88 186.88 0 0 1-15.36-23.68l15.36-19.2 19.84-21.12c7.04-8.32 14.72-16 21.76-23.68s15.36-16.64 23.68-24.32L512 373.76l23.68-22.4 23.68-21.12L576 320l19.84 12.16a145.28 145.28 0 0 1 20.48 19.2 128 128 0 0 1 15.36 22.4 142.72 142.72 0 0 1 10.24 25.6H533.76a23.04 23.04 0 0 0-16 7.04 24.32 24.32 0 0 0-5.76 14.08 21.76 21.76 0 0 0 21.12 17.92h154.88v-7.68a172.8 172.8 0 0 0 0-31.36 156.16 156.16 0 0 0-8.96-29.44 141.44 141.44 0 0 0-10.24-22.4l16-23.04a221.44 221.44 0 0 0 16.64-26.88 118.4 118.4 0 0 0 10.88-22.4v-3.84a57.6 57.6 0 0 0 4.48-33.28z m-42.88 17.92a92.16 92.16 0 0 1-10.24 21.76 235.52 235.52 0 0 1-16 25.6l-7.68 9.6a149.76 149.76 0 0 0-28.8-23.68l17.28-11.52 20.48-12.8 15.36-8.96zM468.48 357.76l-5.76 5.76-3.2 3.2-4.48 4.48c-21.12 21.76-40.96 42.88-58.88 64v-11.52a149.12 149.12 0 0 1 5.12-29.44 105.6 105.6 0 0 1 11.52-26.24 128 128 0 0 1 16-22.4 184.96 184.96 0 0 1 19.2-18.56 180.48 180.48 0 0 1 24.32-13.44 106.24 106.24 0 0 1 28.8-7.68 104.32 104.32 0 0 1 19.84 0h7.04c-21.12 14.08-40.32 33.28-59.52 51.84z m-88.96 166.4a168.96 168.96 0 0 0 21.76 26.24L384 561.28l-17.92 10.24-12.8 4.48a108.8 108.8 0 0 1 10.24-21.76c5.12-8.96 10.24-17.28 16-25.6z" p-id="4165" fill="#1296db"></path></svg>