<?xml version="1.0" standalone="no"?><!DOCTYPE svg PUBLIC "-//W3C//DTD SVG 1.1//EN" "http://www.w3.org/Graphics/SVG/1.1/DTD/svg11.dtd"><svg t="1566101983428" class="icon" viewBox="0 0 1024 1024" version="1.1" xmlns="http://www.w3.org/2000/svg" p-id="15170" width="200" height="200" xmlns:xlink="http://www.w3.org/1999/xlink"><defs><style type="text/css"></style></defs><path d="M574.060606 507.345455c-15.515152 0-26.375758 12.412121-26.375758 26.375757s12.412121 26.375758 26.375758 26.375758c15.515152 0 26.375758-12.412121 26.375758-26.375758 1.551515-13.963636-10.860606-26.375758-26.375758-26.375757zM699.733333 507.345455c-15.515152 0-26.375758 12.412121-26.375757 26.375757 0 15.515152 12.412121 26.375758 26.375757 26.375758s26.375758-12.412121 26.375758-26.375758c1.551515-13.963636-10.860606-26.375758-26.375758-26.375757z" fill="#00C800" p-id="15171"></path><path d="M512 0c-282.375758 0-512 229.624242-512 512s229.624242 512 512 512 512-229.624242 512-512-229.624242-512-512-512z m-85.333333 642.327273c-31.030303 0-60.509091-4.654545-88.436364-15.515152l-68.266667 41.890909 15.515152-69.818182c-52.751515-34.133333-85.333333-91.539394-86.884849-155.151515 0-108.606061 102.4-197.042424 228.072728-197.042424 111.709091 0 206.351515 69.818182 224.969697 161.357576-6.206061 0-12.412121-1.551515-18.618182-1.551515-116.363636 0-211.006061 82.230303-211.006061 183.078788 0 17.066667 3.10303 32.581818 7.757576 49.648484 0 3.10303-1.551515 3.10303-3.10303 3.103031z m321.163636 74.472727l15.515152 58.957576-57.406061-38.787879c-23.272727 7.757576-48.09697 12.412121-72.921212 12.412121-107.054545 0-192.387879-72.921212-192.387879-161.357576s86.884848-161.357576 192.387879-161.357575c107.054545 0 192.387879 72.921212 192.387879 161.357575-1.551515 54.30303-31.030303 102.4-77.575758 128.775758z" fill="#00C800" p-id="15172"></path><path d="M350.642424 373.915152m-35.684848 0a35.684848 35.684848 0 1 0 71.369697 0 35.684848 35.684848 0 1 0-71.369697 0Z" fill="#00C800" p-id="15173"></path><path d="M502.690909 336.678788c-20.169697 0-35.684848 15.515152-35.684848 35.684848 0 20.169697 15.515152 35.684848 35.684848 35.684849 20.169697 0 35.684848-15.515152 35.684849-35.684849 0-18.618182-15.515152-35.684848-35.684849-35.684848z" fill="#00C800" p-id="15174"></path></svg>